<?xml version="1.0" encoding="UTF-8" standalone="no"?>
<!DOCTYPE svg PUBLIC "-//W3C//DTD SVG 1.1//EN"
 "http://www.w3.org/Graphics/SVG/1.1/DTD/svg11.dtd">
<!-- Generated by graphviz version 2.40.1 (20161225.0304)
 -->
<!-- Title: workflow Pages: 1 -->
<svg width="358pt" height="170pt"
 viewBox="0.00 0.00 358.00 170.00" xmlns="http://www.w3.org/2000/svg" xmlns:xlink="http://www.w3.org/1999/xlink">
<g id="graph0" class="graph" transform="scale(1 1) rotate(0) translate(4 166)">
<title>workflow</title>
<polygon fill="#ffffff" stroke="transparent" points="-4,4 -4,-166 354,-166 354,4 -4,4"/>
<!-- place_0e7766b460fd2a39a2fd81d4a3a636b033b52be4 -->
<g id="node1" class="node">
<title>place_0e7766b460fd2a39a2fd81d4a3a636b033b52be4</title>
<ellipse fill="#add8e6" stroke="#333333" cx="36" cy="-81" rx="36" ry="36"/>
<text text-anchor="middle" x="36" y="-78.8" font-family="Arial" font-size="9.00" fill="#000000">draft</text>
</g>
<!-- place_e22586930a5b2f196cd9070b9a4af5c47c1380fa -->
<g id="node2" class="node">
<title>place_e22586930a5b2f196cd9070b9a4af5c47c1380fa</title>
<ellipse fill="none" stroke="#333333" cx="178" cy="-81" rx="36" ry="36"/>
<text text-anchor="middle" x="178" y="-78.8" font-family="Arial" font-size="9.00" fill="#000000">pending</text>
</g>
<!-- place_0e7766b460fd2a39a2fd81d4a3a636b033b52be4&#45;&gt;place_e22586930a5b2f196cd9070b9a4af5c47c1380fa -->
<g id="edge1" class="edge">
<title>place_0e7766b460fd2a39a2fd81d4a3a636b033b52be4&#45;&gt;place_e22586930a5b2f196cd9070b9a4af5c47c1380fa</title>
<path fill="none" stroke="#333333" d="M72.2,-81C91.8951,-81 116.3367,-81 136.7644,-81"/>
<polygon fill="#333333" stroke="#333333" points="136.8661,-82.7501 141.8661,-81 136.8661,-79.2501 136.8661,-82.7501"/>
<text text-anchor="middle" x="107" y="-83.8" font-family="Arial" font-size="9.00" fill="#000000">pending</text>
</g>
<!-- place_51c817ab85e3c10c1544cbe74ec1106357ad59f5 -->
<g id="node3" class="node">
<title>place_51c817ab85e3c10c1544cbe74ec1106357ad59f5</title>
<ellipse fill="none" stroke="#333333" cx="314" cy="-126" rx="36" ry="36"/>
<text text-anchor="middle" x="314" y="-123.8" font-family="Arial" font-size="9.00" fill="#000000">accepted</text>
</g>
<!-- place_e22586930a5b2f196cd9070b9a4af5c47c1380fa&#45;&gt;place_51c817ab85e3c10c1544cbe74ec1106357ad59f5 -->
<g id="edge2" class="edge">
<title>place_e22586930a5b2f196cd9070b9a4af5c47c1380fa&#45;&gt;place_51c817ab85e3c10c1544cbe74ec1106357ad59f5</title>
<path fill="none" stroke="#333333" d="M212.3185,-92.3554C231.3244,-98.6441 255.0268,-106.4868 274.7649,-113.0178"/>
<polygon fill="#333333" stroke="#333333" points="274.3958,-114.7389 279.6924,-114.6482 275.4953,-111.4161 274.3958,-114.7389"/>
<text text-anchor="middle" x="246" y="-109.8" font-family="Arial" font-size="9.00" fill="#000000">accept</text>
</g>
<!-- place_1f087a5954f6249bb7245576c304a0520d4178c5 -->
<g id="node4" class="node">
<title>place_1f087a5954f6249bb7245576c304a0520d4178c5</title>
<ellipse fill="none" stroke="#333333" cx="314" cy="-36" rx="36" ry="36"/>
<text text-anchor="middle" x="314" y="-33.8" font-family="Arial" font-size="9.00" fill="#000000">rejected</text>
</g>
<!-- place_e22586930a5b2f196cd9070b9a4af5c47c1380fa&#45;&gt;place_1f087a5954f6249bb7245576c304a0520d4178c5 -->
<g id="edge3" class="edge">
<title>place_e22586930a5b2f196cd9070b9a4af5c47c1380fa&#45;&gt;place_1f087a5954f6249bb7245576c304a0520d4178c5</title>
<path fill="none" stroke="#333333" d="M212.3185,-69.6446C231.3244,-63.3559 255.0268,-55.5132 274.7649,-48.9822"/>
<polygon fill="#333333" stroke="#333333" points="275.4953,-50.5839 279.6924,-47.3518 274.3958,-47.2611 275.4953,-50.5839"/>
<text text-anchor="middle" x="246" y="-64.8" font-family="Arial" font-size="9.00" fill="#000000">reject</text>
</g>
</g>
</svg>
