<?xml version="1.0" encoding="UTF-8" standalone="no"?>
<!DOCTYPE svg PUBLIC "-//W3C//DTD SVG 1.1//EN"
 "http://www.w3.org/Graphics/SVG/1.1/DTD/svg11.dtd">
<!-- Generated by graphviz version 2.40.1 (20161225.0304)
 -->
<!-- Title: workflow Pages: 1 -->
<svg width="494pt" height="128pt"
 viewBox="0.00 0.00 494.00 128.00" xmlns="http://www.w3.org/2000/svg" xmlns:xlink="http://www.w3.org/1999/xlink">
<g id="graph0" class="graph" transform="scale(1 1) rotate(0) translate(4 124)">
<title>workflow</title>
<polygon fill="#ffffff" stroke="transparent" points="-4,4 -4,-124 490,-124 490,4 -4,4"/>
<!-- place_0e7766b460fd2a39a2fd81d4a3a636b033b52be4 -->
<g id="node1" class="node">
<title>place_0e7766b460fd2a39a2fd81d4a3a636b033b52be4</title>
<ellipse fill="#add8e6" stroke="#333333" cx="36" cy="-36" rx="36" ry="36"/>
<text text-anchor="middle" x="36" y="-33.8" font-family="Arial" font-size="9.00" fill="#000000">draft</text>
</g>
<!-- place_e22586930a5b2f196cd9070b9a4af5c47c1380fa -->
<g id="node2" class="node">
<title>place_e22586930a5b2f196cd9070b9a4af5c47c1380fa</title>
<ellipse fill="none" stroke="#333333" cx="178" cy="-36" rx="36" ry="36"/>
<text text-anchor="middle" x="178" y="-33.8" font-family="Arial" font-size="9.00" fill="#000000">pending</text>
</g>
<!-- place_0e7766b460fd2a39a2fd81d4a3a636b033b52be4&#45;&gt;place_e22586930a5b2f196cd9070b9a4af5c47c1380fa -->
<g id="edge1" class="edge">
<title>place_0e7766b460fd2a39a2fd81d4a3a636b033b52be4&#45;&gt;place_e22586930a5b2f196cd9070b9a4af5c47c1380fa</title>
<path fill="none" stroke="#333333" d="M72.2,-36C91.8951,-36 116.3367,-36 136.7644,-36"/>
<polygon fill="#333333" stroke="#333333" points="136.8661,-37.7501 141.8661,-36 136.8661,-34.2501 136.8661,-37.7501"/>
<text text-anchor="middle" x="107" y="-38.8" font-family="Arial" font-size="9.00" fill="#000000">pending</text>
</g>
<!-- place_51c817ab85e3c10c1544cbe74ec1106357ad59f5 -->
<g id="node3" class="node">
<title>place_51c817ab85e3c10c1544cbe74ec1106357ad59f5</title>
<ellipse fill="none" stroke="#333333" cx="314" cy="-84" rx="36" ry="36"/>
<text text-anchor="middle" x="314" y="-81.8" font-family="Arial" font-size="9.00" fill="#000000">accepted</text>
</g>
<!-- place_e22586930a5b2f196cd9070b9a4af5c47c1380fa&#45;&gt;place_51c817ab85e3c10c1544cbe74ec1106357ad59f5 -->
<g id="edge2" class="edge">
<title>place_e22586930a5b2f196cd9070b9a4af5c47c1380fa&#45;&gt;place_51c817ab85e3c10c1544cbe74ec1106357ad59f5</title>
<path fill="none" stroke="#333333" d="M211.9677,-47.9886C231.1967,-54.7753 255.3175,-63.2885 275.2782,-70.3335"/>
<polygon fill="#333333" stroke="#333333" points="274.6965,-71.9839 279.994,-71.9979 275.8615,-68.6835 274.6965,-71.9839"/>
<text text-anchor="middle" x="246" y="-66.8" font-family="Arial" font-size="9.00" fill="#000000">accept</text>
</g>
<!-- place_1f087a5954f6249bb7245576c304a0520d4178c5 -->
<g id="node4" class="node">
<title>place_1f087a5954f6249bb7245576c304a0520d4178c5</title>
<ellipse fill="none" stroke="#333333" cx="450" cy="-36" rx="36" ry="36"/>
<text text-anchor="middle" x="450" y="-33.8" font-family="Arial" font-size="9.00" fill="#000000">rejected</text>
</g>
<!-- place_e22586930a5b2f196cd9070b9a4af5c47c1380fa&#45;&gt;place_1f087a5954f6249bb7245576c304a0520d4178c5 -->
<g id="edge3" class="edge">
<title>place_e22586930a5b2f196cd9070b9a4af5c47c1380fa&#45;&gt;place_1f087a5954f6249bb7245576c304a0520d4178c5</title>
<path fill="none" stroke="#333333" d="M214.0715,-32.8638C233.0747,-31.3663 256.7806,-29.7418 278,-29 309.9805,-27.8821 318.0195,-27.8821 350,-29 369.3959,-29.678 390.8692,-31.0936 408.9296,-32.4756"/>
<polygon fill="#333333" stroke="#333333" points="408.8079,-34.2213 413.9285,-32.8638 409.079,-30.7318 408.8079,-34.2213"/>
<text text-anchor="middle" x="314" y="-31.8" font-family="Arial" font-size="9.00" fill="#000000">reject</text>
</g>
<!-- place_51c817ab85e3c10c1544cbe74ec1106357ad59f5&#45;&gt;place_1f087a5954f6249bb7245576c304a0520d4178c5 -->
<g id="edge4" class="edge">
<title>place_51c817ab85e3c10c1544cbe74ec1106357ad59f5&#45;&gt;place_1f087a5954f6249bb7245576c304a0520d4178c5</title>
<path fill="none" stroke="#333333" d="M347.9677,-72.0114C367.1967,-65.2247 391.3175,-56.7115 411.2782,-49.6665"/>
<polygon fill="#333333" stroke="#333333" points="411.8615,-51.3165 415.994,-48.0021 410.6965,-48.0161 411.8615,-51.3165"/>
<text text-anchor="middle" x="382" y="-66.8" font-family="Arial" font-size="9.00" fill="#000000">cancel</text>
</g>
</g>
</svg>
